<svg width="647" height="641" viewBox="0 0 647 641" fill="none" xmlns="http://www.w3.org/2000/svg">
<mask id="path-1-inside-1_7_20" fill="white">
<rect width="647" height="641" rx="25"/>
</mask>
<rect width="647" height="641" rx="25" stroke="#391053" stroke-width="70" mask="url(#path-1-inside-1_7_20)"/>
<path d="M478.587 394.507L432.108 440.984L412.657 421.534L383.992 450.199L432.108 498.316L507.251 423.171L478.587 394.507Z" fill="#391053" stroke="#391053" stroke-width="0.416667"/>
<path d="M511.285 332.35C516.546 320.691 519.946 308.048 519.946 293.974V158.838C519.946 110.404 480.543 71 432.108 71C404.971 71 380.666 83.3731 364.541 102.771C348.415 83.3731 324.11 71 296.973 71C269.835 71 245.53 83.3731 229.405 102.771C213.279 83.3731 188.976 71 161.838 71C113.402 71 74 110.404 74 158.838V293.974C74 355.122 141.567 392.791 141.567 435.866V476.406C141.567 513.663 171.878 543.974 209.135 543.974C246.392 543.974 276.702 513.663 276.702 476.406V442.622C276.702 431.445 285.796 422.351 296.973 422.351C308.149 422.351 317.243 431.444 317.243 442.622C317.243 513.41 374.834 571 445.621 571C516.408 571 574 513.411 574 442.624C574 395.814 548.813 354.782 511.285 332.35ZM328.302 390.525C319.145 384.997 308.426 381.813 296.974 381.813C263.442 381.813 236.163 409.092 236.163 442.624V476.408C236.163 491.31 224.037 503.435 209.136 503.435C194.234 503.435 182.108 491.311 182.108 476.408V435.868C182.108 372.692 114.541 337.219 114.541 293.975V158.838C114.541 132.758 135.759 111.541 161.838 111.541C187.918 111.541 209.135 132.759 209.135 158.838H249.676C249.676 132.758 270.894 111.541 296.973 111.541C323.052 111.541 344.27 132.759 344.27 158.838H384.81C384.81 132.758 406.027 111.541 432.106 111.541C458.187 111.541 479.403 132.759 479.403 158.838V293.974C479.403 301.804 477.098 309.519 473.365 317.272C464.428 315.296 455.145 314.244 445.619 314.244C393.372 314.244 348.319 345.624 328.302 390.525ZM445.622 530.462C397.188 530.462 357.784 491.057 357.784 442.624C357.784 394.19 397.188 354.785 445.622 354.785C494.056 354.785 533.46 394.19 533.46 442.624C533.46 491.057 494.056 530.462 445.622 530.462Z" fill="#391053" stroke="#391053" stroke-width="0.416667"/>
</svg>
