<svg width="500" height="500" viewBox="0 0 500 500" fill="none" xmlns="http://www.w3.org/2000/svg">
<path d="M421.875 62.5H78.125C51.5625 62.5 31.25 82.8125 31.25 109.375V390.625C31.25 417.188 51.5625 437.5 78.125 437.5H421.875C448.438 437.5 468.75 417.188 468.75 390.625V109.375C468.75 82.8125 448.438 62.5 421.875 62.5ZM189.063 118.75C190.625 117.187 190.625 115.625 192.188 114.063C198.438 107.813 207.812 107.813 214.062 114.063C215.625 115.625 217.187 117.187 217.187 118.75C218.75 120.312 218.75 123.437 218.75 125C218.75 126.563 218.75 129.687 217.187 131.25C215.625 132.812 215.625 134.375 214.062 135.937C210.937 139.062 207.813 140.625 203.125 140.625C201.562 140.625 198.438 140.625 196.875 139.062C195.313 137.5 193.75 137.5 192.188 135.937C190.625 134.375 189.063 132.812 189.063 131.25C187.5 129.687 187.5 126.563 187.5 125C187.5 123.437 187.5 120.312 189.063 118.75ZM142.188 118.75C143.75 117.187 143.75 115.625 145.313 114.063C146.875 112.5 148.438 110.937 150 110.937C156.25 107.812 162.5 109.375 167.187 114.063C168.75 115.625 170.312 117.187 170.312 118.75C171.875 120.312 171.875 123.437 171.875 125C171.875 129.688 170.312 132.812 167.187 135.937C164.062 139.062 160.938 140.625 156.25 140.625C151.562 140.625 148.438 139.062 145.313 135.937C142.188 132.812 140.625 129.688 140.625 125C140.625 123.437 140.625 120.312 142.188 118.75ZM98.4375 114.063L100 112.5C101.563 112.5 101.562 110.937 103.125 110.937C104.687 109.375 104.688 109.375 106.25 109.375C107.813 109.375 110.937 109.375 112.5 109.375C114.062 109.375 114.063 109.375 115.625 110.937C117.188 110.937 117.187 112.5 118.75 112.5L120.312 114.063C121.875 115.625 123.438 117.187 123.438 118.75C125 120.312 125 123.437 125 125C125 126.563 125 129.687 123.438 131.25C123.438 132.812 121.875 134.375 120.312 135.937C117.187 139.062 114.063 140.625 109.375 140.625C104.687 140.625 101.563 139.062 98.4375 135.937C95.3125 132.812 93.75 129.688 93.75 125C93.75 120.312 95.3125 117.188 98.4375 114.063ZM437.5 390.625C437.5 400 431.25 406.25 421.875 406.25H78.125C68.75 406.25 62.5 400 62.5 390.625V187.5H437.5V390.625Z" fill="#391053"/>
<path d="M359.375 218.75H140.625C114.062 218.75 93.75 239.062 93.75 265.625V328.125C93.75 354.688 114.062 375 140.625 375H359.375C385.938 375 406.25 354.688 406.25 328.125V265.625C406.25 239.062 385.938 218.75 359.375 218.75Z" fill="#391053"/>
<rect x="203.5" y="250.5" width="93" height="93" rx="6.5" stroke="#EAEAEA" stroke-width="7"/>
<path d="M273.97 308.546L266.786 315.796L263.78 312.762L259.35 317.234L266.786 324.74L278.4 313.017L273.97 308.546Z" fill="#F5F5F5" stroke="#EAEAEA" stroke-width="0.416667"/>
<path d="M279.024 298.849C279.837 297.03 280.363 295.057 280.363 292.862V271.78C280.363 264.224 274.272 258.076 266.786 258.076C262.592 258.076 258.836 260.007 256.343 263.033C253.851 260.007 250.094 258.076 245.9 258.076C241.706 258.076 237.949 260.007 235.457 263.033C232.964 260.007 229.208 258.076 225.014 258.076C217.527 258.076 211.437 264.224 211.437 271.78V292.862C211.437 302.401 221.881 308.278 221.881 314.998V321.322C221.881 327.135 226.565 331.863 232.324 331.863C238.082 331.863 242.767 327.135 242.767 321.322V316.052C242.767 314.308 244.172 312.889 245.9 312.889C247.627 312.889 249.033 314.308 249.033 316.052C249.033 327.095 257.934 336.08 268.875 336.08C279.816 336.08 288.717 327.095 288.717 316.052C288.717 308.749 284.824 302.348 279.024 298.849ZM250.742 307.924C249.327 307.062 247.67 306.565 245.9 306.565C240.718 306.565 236.501 310.821 236.501 316.052V321.323C236.501 323.647 234.627 325.539 232.324 325.539C230.021 325.539 228.147 323.648 228.147 321.323V314.998C228.147 305.142 217.703 299.608 217.703 292.862V271.78C217.703 267.711 220.983 264.401 225.014 264.401C229.045 264.401 232.324 267.711 232.324 271.78H238.59C238.59 267.711 241.869 264.401 245.9 264.401C249.931 264.401 253.21 267.711 253.21 271.78H259.476C259.476 267.711 262.755 264.401 266.786 264.401C270.817 264.401 274.096 267.711 274.096 271.78V292.862C274.096 294.083 273.74 295.287 273.163 296.496C271.782 296.188 270.347 296.024 268.875 296.024C260.799 296.024 253.836 300.919 250.742 307.924ZM268.875 329.755C261.389 329.755 255.299 323.608 255.299 316.052C255.299 308.496 261.389 302.349 268.875 302.349C276.361 302.349 282.451 308.496 282.451 316.052C282.451 323.608 276.361 329.755 268.875 329.755Z" fill="#F5F5F5" stroke="#EAEAEA" stroke-width="0.416667"/>
</svg>
