<svg width="477" height="424" viewBox="0 0 477 424" fill="none" xmlns="http://www.w3.org/2000/svg">
<path d="M397.5 53H79.5C57.5467 53 39.75 68.8193 39.75 88.3333V265C39.75 284.514 57.5467 300.333 79.5 300.333H397.5C419.453 300.333 437.25 284.514 437.25 265V88.3333C437.25 68.8193 419.453 53 397.5 53Z" stroke="#391053" stroke-width="30" stroke-linecap="round" stroke-linejoin="round"/>
<path d="M159 371H318" stroke="#391053" stroke-width="35" stroke-linecap="round" stroke-linejoin="round"/>
<path d="M221 371C221 380.665 228.835 388.5 238.5 388.5C248.165 388.5 256 380.665 256 371H221ZM221 300.333V371H256V300.333H221Z" fill="#391053"/>
<path d="M394.464 42H82.5357C58.4321 42 40 55.975 40 74.25V267.75C40 286.025 58.4321 300 82.5357 300H394.464C418.568 300 437 286.025 437 267.75V74.25C437 55.975 418.568 42 394.464 42ZM183.204 80.7C184.621 79.625 184.621 78.55 186.039 77.475C191.711 73.175 200.218 73.175 205.889 77.475C207.307 78.55 208.725 79.625 208.725 80.7C210.143 81.775 210.143 83.925 210.143 85C210.143 86.075 210.143 88.225 208.725 89.3C207.307 90.375 207.307 91.45 205.889 92.525C203.054 94.675 200.218 95.75 195.964 95.75C194.546 95.75 191.711 95.75 190.293 94.675C188.875 93.6 187.457 93.6 186.039 92.525C184.621 91.45 183.204 90.375 183.204 89.3C181.786 88.225 181.786 86.075 181.786 85C181.786 83.925 181.786 81.775 183.204 80.7ZM140.668 80.7C142.086 79.625 142.086 78.55 143.504 77.475C144.921 76.4 146.339 75.325 147.757 75.325C153.429 73.175 159.1 74.25 163.354 77.475C164.771 78.55 166.189 79.625 166.189 80.7C167.607 81.775 167.607 83.925 167.607 85C167.607 88.225 166.189 90.375 163.354 92.525C160.518 94.675 157.682 95.75 153.429 95.75C149.175 95.75 146.339 94.675 143.504 92.525C140.668 90.375 139.25 88.225 139.25 85C139.25 83.925 139.25 81.775 140.668 80.7ZM100.968 77.475L102.386 76.4C103.804 76.4 103.804 75.325 105.221 75.325C106.639 74.25 106.639 74.25 108.057 74.25C109.475 74.25 112.311 74.25 113.729 74.25C115.146 74.25 115.146 74.25 116.564 75.325C117.982 75.325 117.982 76.4 119.4 76.4L120.818 77.475C122.236 78.55 123.654 79.625 123.654 80.7C125.071 81.775 125.071 83.925 125.071 85C125.071 86.075 125.071 88.225 123.654 89.3C123.654 90.375 122.236 91.45 120.818 92.525C117.982 94.675 115.146 95.75 110.893 95.75C106.639 95.75 103.804 94.675 100.968 92.525C98.1321 90.375 96.7143 88.225 96.7143 85C96.7143 81.775 98.1321 79.625 100.968 77.475ZM408.643 267.75C408.643 274.2 402.971 278.5 394.464 278.5H82.5357C74.0286 278.5 68.3571 274.2 68.3571 267.75V128H408.643V267.75Z" fill="#391053"/>
<rect x="192.5" y="150.5" width="93" height="93" rx="6.5" fill="#391053" stroke="#EAEAEA" stroke-width="7"/>
<path d="M262.97 208.546L255.786 215.796L252.78 212.762L248.35 217.234L255.786 224.74L267.4 213.017L262.97 208.546Z" fill="#F8F8F8" stroke="#EAEAEA" stroke-width="0.416667"/>
<path d="M268.024 198.849C268.837 197.03 269.363 195.057 269.363 192.862V171.78C269.363 164.224 263.272 158.076 255.786 158.076C251.592 158.076 247.836 160.007 245.343 163.033C242.851 160.007 239.094 158.076 234.9 158.076C230.706 158.076 226.949 160.007 224.457 163.033C221.964 160.007 218.208 158.076 214.014 158.076C206.527 158.076 200.437 164.224 200.437 171.78V192.862C200.437 202.401 210.881 208.278 210.881 214.998V221.322C210.881 227.135 215.565 231.863 221.324 231.863C227.082 231.863 231.767 227.135 231.767 221.322V216.052C231.767 214.308 233.172 212.889 234.9 212.889C236.627 212.889 238.033 214.308 238.033 216.052C238.033 227.095 246.934 236.08 257.875 236.08C268.816 236.08 277.717 227.095 277.717 216.052C277.717 208.749 273.824 202.348 268.024 198.849ZM239.742 207.924C238.327 207.062 236.67 206.565 234.9 206.565C229.718 206.565 225.501 210.821 225.501 216.052V221.323C225.501 223.647 223.627 225.539 221.324 225.539C219.021 225.539 217.147 223.648 217.147 221.323V214.998C217.147 205.142 206.703 199.608 206.703 192.862V171.78C206.703 167.711 209.983 164.401 214.014 164.401C218.045 164.401 221.324 167.711 221.324 171.78H227.59C227.59 167.711 230.869 164.401 234.9 164.401C238.931 164.401 242.21 167.711 242.21 171.78H248.476C248.476 167.711 251.755 164.401 255.786 164.401C259.817 164.401 263.096 167.711 263.096 171.78V192.862C263.096 194.083 262.74 195.287 262.163 196.496C260.782 196.188 259.347 196.024 257.875 196.024C249.799 196.024 242.836 200.919 239.742 207.924ZM257.875 229.755C250.389 229.755 244.299 223.608 244.299 216.052C244.299 208.496 250.389 202.349 257.875 202.349C265.361 202.349 271.451 208.496 271.451 216.052C271.451 223.608 265.361 229.755 257.875 229.755Z" fill="white" stroke="#EAEAEA" stroke-width="0.416667"/>
<g clip-path="url(#clip0_14_1096)">
<rect x="331" y="229" width="69" height="123" fill="white"/>
<path d="M390.75 229.75C392.938 229.75 395.036 230.672 396.584 232.313C398.131 233.954 399 236.179 399 238.5V343.5C399 345.821 398.131 348.046 396.584 349.687C395.036 351.328 392.938 352.25 390.75 352.25H341.25C339.062 352.25 336.964 351.328 335.416 349.687C333.869 348.046 333 345.821 333 343.5V238.5C333 236.179 333.869 233.954 335.416 232.313C336.964 230.672 339.062 229.75 341.25 229.75H390.75ZM341.25 221C336.874 221 332.677 222.844 329.583 226.126C326.488 229.408 324.75 233.859 324.75 238.5V343.5C324.75 348.141 326.488 352.592 329.583 355.874C332.677 359.156 336.874 361 341.25 361H390.75C395.126 361 399.323 359.156 402.417 355.874C405.512 352.592 407.25 348.141 407.25 343.5V238.5C407.25 233.859 405.512 229.408 402.417 226.126C399.323 222.844 395.126 221 390.75 221H341.25Z" fill="#391053"/>
<path d="M366 343.5C368.188 343.5 370.286 342.578 371.834 340.937C373.381 339.296 374.25 337.071 374.25 334.75C374.25 332.429 373.381 330.204 371.834 328.563C370.286 326.922 368.188 326 366 326C363.812 326 361.714 326.922 360.166 328.563C358.619 330.204 357.75 332.429 357.75 334.75C357.75 337.071 358.619 339.296 360.166 340.937C361.714 342.578 363.812 343.5 366 343.5Z" fill="#391053"/>
</g>
<rect x="344.5" y="258.5" width="43" height="43" rx="6.5" fill="white" stroke="#391053" stroke-width="7"/>
<path d="M375.993 286.701L372.892 289.818L371.594 288.514L369.682 290.437L372.892 293.664L377.905 288.624L375.993 286.701Z" fill="#F8F8F8" stroke="#391053"/>
<path d="M378.174 282.531C378.525 281.749 378.752 280.901 378.752 279.957V270.892C378.752 267.643 376.123 265 372.892 265C371.081 265 369.46 265.83 368.384 267.131C367.308 265.83 365.687 265 363.876 265C362.066 265 360.444 265.83 359.368 267.131C358.292 265.83 356.671 265 354.86 265C351.629 265 349 267.643 349 270.892V279.957C349 284.059 353.508 286.586 353.508 289.475V292.194C353.508 294.694 355.53 296.727 358.016 296.727C360.501 296.727 362.524 294.694 362.524 292.194V289.928C362.524 289.178 363.13 288.568 363.876 288.568C364.622 288.568 365.228 289.178 365.228 289.928C365.228 294.677 369.071 298.54 373.793 298.54C378.516 298.54 382.359 294.677 382.359 289.928C382.359 286.788 380.678 284.036 378.174 282.531ZM365.966 286.434C365.355 286.063 364.64 285.849 363.876 285.849C361.639 285.849 359.819 287.679 359.819 289.928V292.195C359.819 293.194 359.01 294.008 358.016 294.008C357.022 294.008 356.213 293.194 356.213 292.195V289.475C356.213 285.237 351.705 282.858 351.705 279.957V270.892C351.705 269.143 353.12 267.719 354.86 267.719C356.6 267.719 358.016 269.143 358.016 270.892H360.721C360.721 269.143 362.136 267.719 363.876 267.719C365.616 267.719 367.032 269.143 367.032 270.892H369.736C369.736 269.143 371.152 267.719 372.892 267.719C374.632 267.719 376.047 269.143 376.047 270.892V279.957C376.047 280.482 375.894 281 375.645 281.52C375.048 281.387 374.429 281.317 373.793 281.317C370.308 281.317 367.302 283.422 365.966 286.434ZM373.794 295.82C370.562 295.82 367.933 293.177 367.933 289.928C367.933 286.679 370.562 284.036 373.794 284.036C377.025 284.036 379.654 286.679 379.654 289.928C379.654 293.177 377.025 295.82 373.794 295.82Z" fill="#391053" stroke="#391053" stroke-width="0.416667"/>
<defs>
<clipPath id="clip0_14_1096">
<rect width="132" height="140" fill="white" transform="translate(300 221)"/>
</clipPath>
</defs>
</svg>
